<?xml version="1.0" encoding="UTF-8"?>
<svg width="850px" height="302px" viewBox="0 0 850 302" version="1.1" xmlns="http://www.w3.org/2000/svg" xmlns:xlink="http://www.w3.org/1999/xlink">
    <!-- Generator: Sketch 52.3 (67297) - http://www.bohemiancoding.com/sketch -->
    <title>Jumbo - Wordmark - Transbg</title>
    <desc>Created with Sketch.</desc>
    <defs>
        <path d="M719.997343,140.210281 L719.997343,139.596891 C719.408712,137.668579 718.266956,136.079434 716.56619,134.832408 C714.838272,133.565473 712.962246,132.651669 710.947369,132.087898 C708.929407,131.527225 706.985498,131.279414 705.112558,131.347562 C703.236532,131.418808 701.869625,131.666619 701.005666,132.087898 C698.410702,133.497325 694.769731,136.241834 690.092008,140.324525 C685.405029,144.410313 680.289155,149.267414 674.744387,154.898925 C669.196534,160.530436 663.537601,166.620397 657.776843,173.16881 C652.016086,179.714125 646.755191,186.157217 642.000329,192.491893 C646.323211,185.872234 650.649179,179.714125 654.968975,174.011368 C659.288772,168.308611 663.39875,163.169625 667.286567,158.591312 C671.180555,154.016097 674.670334,150.17812 677.768245,147.080479 C680.866156,143.982839 683.208103,141.659608 684.791,140.110788 C685.65496,139.407623 685.65496,138.561967 684.791,137.576918 C683.930127,136.591868 682.698984,135.640892 681.119173,134.723991 C679.530105,133.810186 677.87624,133.035776 676.148321,132.40076 C674.420403,131.765744 673.047324,131.449784 672.041429,131.449784 C670.890512,131.452882 668.801581,132.89948 665.777724,135.783384 C662.753866,138.670385 659.365911,142.403042 655.620031,146.978257 C651.871064,151.55657 647.949306,156.624311 643.842413,162.184576 C639.735521,167.747938 635.986555,173.16881 632.601685,178.44719 C629.213731,183.725569 626.44289,188.51762 624.282991,192.81095 C622.123093,197.107377 621.040058,200.310338 621.040058,202.422929 C621.040058,203.407979 621.580033,204.712085 622.659982,206.329054 C623.743017,207.946022 624.961816,209.429792 626.331809,210.767973 C627.698716,212.106154 629.068709,213.019958 630.438702,213.512483 C631.805609,214.005008 632.848531,213.689048 633.57364,212.561507 L634.437599,210.870195 C637.174499,206.508717 640.741417,201.546297 645.135267,195.979836 C649.529117,190.419571 654.175984,184.78806 659.078953,179.082206 C663.975751,173.382547 668.875635,167.924504 673.775519,162.71737 C678.675402,157.510236 683.140221,153.071317 687.176145,149.409905 C686.167164,151.098119 684.655235,153.21071 682.637273,155.747678 C680.619311,158.278451 678.638376,160.815418 676.691382,163.349289 C674.747473,165.880061 673.019554,168.277635 671.50454,170.526522 C669.992611,172.784702 669.236647,174.404768 669.236647,175.386721 C669.236647,176.37177 669.594573,177.428066 670.316596,178.552509 C671.038619,179.680051 672.010573,180.736346 673.235544,181.718298 C674.45743,182.706446 675.753369,183.549004 677.126447,184.252168 C678.493354,184.95843 679.82632,185.308464 681.125344,185.308464 C682.276261,185.308464 683.643169,184.856208 685.232237,183.936209 C686.818219,183.022405 688.438143,181.86079 690.095093,180.451363 C691.748958,179.048132 693.405909,177.496214 695.065945,175.804902 C696.716725,174.116688 698.123744,172.499719 699.277747,170.947801 C700.283642,169.683964 700.573686,168.977702 700.141706,168.83521 C699.709727,168.695817 698.987703,168.77016 697.981808,169.04585 C696.969741,169.330833 695.963846,169.643695 694.95795,169.996826 C693.945884,170.349957 693.368882,170.455276 693.226946,170.315883 C692.933817,170.033997 693.442936,169.191439 694.738875,167.782013 C696.034814,166.375684 697.688679,164.616224 699.709727,162.503633 C701.721518,160.391042 703.958555,158.142155 706.408497,155.744581 C708.858439,153.350104 711.123247,151.064045 713.215262,148.877111 C715.304193,146.696372 717.001256,144.757249 718.294109,143.069035 C719.268355,141.79686 719.8361,140.844825 719.997343,140.210281 L719.997343,140.210281 L719.997343,140.210281 L719.997343,140.210281 Z" id="path-1"></path>
        <path d="M635.211462,142.394893 C633.126276,140.220593 630.721238,138.330031 627.993274,136.717039 C625.262233,135.107132 622.423551,133.845729 619.483377,132.929747 C616.537052,132.019934 613.913654,131.773205 611.619334,132.192644 C608.4608,132.895822 604.976263,134.647599 601.171874,137.451058 C597.367486,140.254518 593.556947,143.72723 589.755634,147.859943 C585.94817,151.99574 582.322161,156.584901 578.877605,161.633596 C575.429974,166.68229 572.443668,171.656966 569.934063,176.563791 C567.424459,181.473701 565.517651,186.099871 564.229019,190.445388 C562.93731,194.78782 562.577477,198.433243 563.14952,201.378572 C563.435541,202.781844 564.659588,204.286891 566.80936,205.899883 C568.965282,207.512874 571.367244,208.987081 574.030624,210.319418 C576.684777,211.651755 579.342005,212.700354 582.002309,213.468298 C584.656462,214.239327 586.634006,214.553907 587.925714,214.418206 C590.9397,213.995682 594.350425,212.456709 598.157889,209.78895 C601.962277,207.130444 605.837402,203.799601 609.789414,199.80259 C613.73835,195.808662 617.579645,191.358286 621.316372,186.448376 C625.046949,181.544635 628.279295,176.745754 631.00726,172.045564 C633.735224,167.351543 635.854241,162.935092 637.361234,158.796211 C638.868227,154.663498 639.406439,151.332655 638.975869,148.80985 C638.551451,146.706484 637.290498,144.569193 635.211462,142.394893 L635.211462,142.394893 L635.211462,142.394893 Z M624.979288,147.863027 C623.395407,151.437515 621.027276,155.715181 617.868741,160.689857 C614.710207,165.664533 611.118028,170.922947 607.098355,176.458931 C603.072531,182.001084 599.1605,187.046694 595.356112,191.598847 C591.551724,196.157167 588.174829,199.799505 585.234655,202.535115 C582.285255,205.270724 580.387674,206.288481 579.523459,205.582219 C578.517772,204.882125 578.840699,202.710909 580.492241,199.065486 C582.140706,195.420064 584.514989,191.111557 587.602787,186.133797 C590.690585,181.159121 594.205876,175.934632 598.160964,170.466498 C602.109901,165.001448 605.94812,160.026772 609.684847,155.536302 C613.418499,151.052001 616.758487,147.477513 619.704812,144.812838 C622.644986,142.151248 624.690191,141.099565 625.843502,141.65779 C626.843038,142.219099 626.553942,144.288539 624.979288,147.863027 L624.979288,147.863027 L624.979288,147.863027 Z" id="path-3"></path>
        <path d="M609.702811,86 L609.655284,86 C609.41498,86.0009499 609.201279,86.0164168 609.014102,86.0463389 C607.714325,86.3274615 605.510892,88.0141973 602.403805,91.1003677 C599.293622,94.1896274 595.610919,98.193308 591.349505,103.105231 C587.084996,108.023332 582.461502,113.636517 577.475926,119.957142 C572.493445,126.274678 567.504774,132.805373 562.519199,139.546138 C557.536717,146.286903 552.72754,152.996775 548.10714,159.663397 C543.477456,166.333109 539.39863,172.548699 535.858283,178.30399 C532.311747,184.06237 529.464615,189.15347 527.295224,193.574201 C525.125833,197.99802 524.042685,201.195404 524.042685,203.157084 C524.042685,204.142558 524.404766,205.233067 525.125833,206.425521 C525.849995,207.617975 526.787692,208.708484 527.945113,209.690868 C529.099439,210.673253 530.402311,211.516621 531.84754,212.217883 C533.292769,212.919145 534.663725,213.27132 535.966598,213.27132 C537.120924,213.27132 538.49188,212.820288 540.085655,211.902778 C541.673241,210.991447 543.297963,209.832974 544.962916,208.427361 C546.618585,207.027926 548.283538,205.446225 549.945397,203.688437 C551.604161,201.936826 553.012253,200.284073 554.172769,198.736353 C555.181644,197.475935 555.472547,196.771584 555.036193,196.629478 C554.602934,196.490462 553.881866,196.564604 552.872991,196.839548 C551.857927,197.12376 550.811915,197.472846 549.728767,197.892986 C548.642525,198.316214 548.026678,198.45832 547.884321,198.316214 C547.447967,197.892986 548.131898,195.999269 549.942302,192.628887 C551.746517,189.255415 554.389399,184.868667 557.855472,179.462462 C561.324641,174.056258 565.514877,167.91481 570.426179,161.02885 C575.337482,154.149069 580.651097,146.991254 586.35774,139.546138 C592.067477,132.104111 598.027886,124.665174 604.238967,117.216969 C610.453142,109.774942 616.596139,102.756144 622.667957,96.1543966 C623.822284,94.8908894 623.930598,93.6273821 622.989807,92.3638749 C622.049015,91.1003677 620.721385,89.9418953 618.985254,88.8884578 C617.249122,87.8381095 615.370634,87.0657946 613.349789,86.571513 C611.789989,86.1929632 610.575746,86.0034016 609.702811,86 L609.702811,86 L609.702811,86 L609.702811,86 Z" id="path-5"></path>
        <path d="M537.218302,135.847948 C534.198146,138.796496 530.777358,142.584839 526.965182,147.216066 C523.153006,151.847293 519.195986,156.972517 515.09104,162.585564 C510.986094,168.198611 507.2109,173.672721 503.756212,179.004807 C500.301524,184.336893 497.460112,189.181156 495.228895,193.528334 C492.997679,197.8786 491.885152,201.105021 491.885152,203.210686 C491.885152,204.195593 492.245721,205.285475 492.963779,206.477244 C493.684918,207.669013 494.655682,208.758895 495.876072,209.740715 C497.096461,210.722536 498.390813,211.565419 499.765292,212.266278 C501.130526,212.970224 502.46186,213.31911 503.756212,213.31911 C504.90572,213.31911 506.270954,212.868337 507.858076,211.951354 C509.442117,211.040546 511.097039,209.88274 512.822842,208.477934 C514.548645,207.079304 516.203567,205.498512 517.784526,203.741733 C519.368567,201.991129 520.807763,200.339325 522.102115,198.792495 C523.106779,197.532802 523.359486,196.828855 522.857154,196.686831 C522.351741,196.547894 521.596702,196.621994 520.592038,196.89678 C519.584292,197.180828 518.576546,197.529714 517.571882,197.949612 C516.564136,198.372597 515.98476,198.514622 515.842997,198.372597 C515.266702,197.813763 515.735135,196.127996 517.245212,193.318385 C518.75529,190.511862 520.807763,187.109454 523.39955,183.108074 C525.988254,179.106694 528.97451,174.82744 532.355235,170.267226 C535.73596,165.707011 539.011904,161.353658 542.179986,157.213341 C545.341904,153.076112 548.186397,149.423617 550.707302,146.268208 C553.222044,143.109712 554.917029,141.041097 555.779931,140.056189 C556.497988,139.216394 556.464088,138.302498 555.672068,137.320678 C554.880048,136.341945 553.764439,135.424963 552.328324,134.585167 C550.886046,133.742283 549.305087,133.004375 547.579284,132.374528 C545.850399,131.741593 544.482084,131.42667 543.47742,131.42667 C542.32483,131.42667 540.238457,132.8994 537.218302,135.847948 L537.218302,135.847948 L537.218302,135.847948 Z M562.908114,125.95256 C565.065368,124.550842 567.222622,122.936088 569.386039,121.111384 C571.540211,119.289768 573.44784,117.428015 575.102762,115.5323 C576.754602,113.636584 577.586686,112.129892 577.586686,111.006047 C577.586686,109.604329 577.118253,108.41256 576.181389,107.427653 C575.244524,106.44892 574.058035,105.636912 572.62192,105.007065 C571.179642,104.37413 569.632582,103.92027 567.980742,103.639309 C566.32582,103.358348 564.775679,103.290423 563.339565,103.42936 C562.331819,103.571384 561.105266,104.238281 559.672233,105.426963 C558.229955,106.621819 556.679814,107.992662 555.031055,109.533317 C553.373052,111.077059 551.755111,112.725776 550.174152,114.479467 C548.58703,116.236246 547.153997,117.817038 545.856563,119.215669 C544.703973,120.47845 544.488247,121.710356 545.209387,122.899038 C545.924362,124.093894 547.076952,125.109677 548.664075,125.95256 C550.245033,126.792356 551.933855,127.46234 553.736703,127.950162 C555.533387,128.44416 556.935602,128.549134 557.94643,128.268173 C559.089774,128.129237 560.744696,127.357365 562.908114,125.95256 L562.908114,125.95256 L562.908114,125.95256 Z" id="path-7"></path>
        <path d="M503.879441,137.593132 C503.020278,136.748864 501.973269,135.79945 500.750731,134.747982 C499.528194,133.696513 498.302578,132.747099 497.086199,131.899739 C495.863662,131.058564 494.604172,130.390573 493.310807,129.898857 C492.017443,129.40714 490.791826,129.305086 489.643196,129.583416 C485.042514,130.424591 480.334052,132.570823 475.514731,136.015929 C470.698488,139.461034 466.0239,143.574132 461.494046,148.349035 C456.964191,153.130124 452.683772,158.297783 448.658945,163.848918 C444.631039,169.403145 441.111241,174.743986 438.090311,179.874534 C435.072461,185.008174 432.695134,189.647006 430.970649,193.794121 C429.246163,197.941236 428.38392,200.999772 428.38392,202.963544 C428.38392,203.950069 428.744214,205.041741 429.461724,206.235467 C430.179233,207.429193 431.152336,208.520865 432.374873,209.504297 C433.594331,210.487729 434.887695,211.331996 436.258045,212.034006 C437.622236,212.739109 438.952554,213.088567 440.248998,213.088567 C440.824853,213.088567 441.93653,212.454594 443.590189,211.192831 C445.243847,209.924884 447.186973,208.239442 449.416487,206.13032 C451.646001,204.021198 454.161902,201.562617 456.967271,198.748393 C459.76956,195.940354 462.608803,192.986964 465.488078,189.89441 C463.902167,192.708634 462.682709,195.238344 461.823546,197.483538 C460.958224,199.734918 460.527102,201.562617 460.527102,202.963544 C460.527102,203.950069 460.884317,205.041741 461.607985,206.235467 C462.322415,207.429193 463.298597,208.520865 464.518055,209.504297 C465.737512,210.487729 467.030877,211.331996 468.401227,212.034006 C469.765418,212.739109 471.098815,213.088567 472.39218,213.088567 C473.54081,213.088567 474.905002,212.637054 476.490913,211.718566 C478.070665,210.806262 479.727403,209.646554 481.451889,208.239442 C483.176374,206.838515 484.830033,205.255127 486.409785,203.495464 C487.992617,201.741986 489.427635,200.087469 490.724079,198.538099 C491.727976,197.276337 491.98049,196.571235 491.478541,196.428977 C490.973513,196.289812 490.219051,196.364034 489.215154,196.639271 C488.208177,196.923786 487.198121,197.273245 486.194224,197.693832 C485.190327,198.117512 484.611393,198.259769 484.469739,198.117512 C483.890804,197.55776 484.254178,195.940354 485.550622,193.268387 C486.843986,190.599512 488.710126,187.401811 491.1552,183.672191 C493.600275,179.951848 496.365611,175.906787 499.460447,171.549378 C502.552203,167.195061 505.536179,163.081964 508.409296,159.213179 C511.285491,155.347486 513.912253,151.939491 516.283421,148.986102 C518.657668,146.032712 520.3452,143.997812 521.352177,142.869029 C522.069686,142.027854 522.032733,141.112458 521.244396,140.129026 C520.452981,139.145594 519.30435,138.230198 517.792346,137.389023 C516.283421,136.544756 514.700589,135.805635 513.04693,135.174754 C511.393272,134.543873 510.062954,134.22534 509.059057,134.22534 C507.901188,134.219155 506.176702,135.344845 503.879441,137.593132 L503.879441,137.593132 L503.879441,137.593132 Z M452.003216,191.994254 C453.512141,188.904793 455.701622,185.215375 458.583976,180.92291 C461.460172,176.63663 464.76441,172.102945 468.505928,167.324949 C472.244367,162.546952 476.087506,158.152433 480.044585,154.144482 C483.998584,150.139624 487.80785,146.839869 491.478541,144.235938 C495.146153,141.6351 498.274863,140.475392 500.861591,140.756815 C497.40954,144.415306 493.489415,149.017027 489.107373,154.568162 C484.719173,160.12239 480.51266,165.920929 476.487833,171.96378 C473.469983,175.198592 470.445974,178.362275 467.428124,181.451737 C464.410274,184.547384 461.678812,187.321405 459.233738,189.779985 C456.785584,192.241659 454.77471,194.174505 453.191879,195.578525 C451.609047,196.985637 450.746805,197.616518 450.60515,197.474261 C450.026216,196.917601 450.494291,195.086809 452.003216,191.994254 L452.003216,191.994254 L452.003216,191.994254 Z" id="path-9"></path>
        <path d="M447.166203,114.392696 C444.862594,114.392696 443.024642,114.917698 441.661596,115.97079 C440.2893,117.023881 439.02802,118.324033 437.877758,119.868155 C436.724412,121.551249 435.894866,123.132431 435.392205,124.605524 C434.886459,126.078617 435.641994,126.816708 437.658807,126.816708 L444.572716,126.816708 C439.098948,133.836289 433.480241,141.343814 427.722762,149.345458 C421.962199,157.347102 416.707382,164.999774 411.955226,172.297298 C407.20307,179.59791 403.314382,186.055431 400.289162,191.666773 C397.267025,197.281203 395.752873,201.076657 395.752873,203.037693 C395.752873,204.022843 396.113679,205.112994 396.832207,206.305056 C397.553819,207.497119 398.522137,208.58727 399.749494,209.569332 C400.970684,210.551394 402.265886,211.394485 403.638182,212.095516 C405.004312,212.799636 406.336519,213.148608 407.634804,213.148608 C408.785066,213.148608 410.151195,212.697724 411.739359,211.780515 C413.321355,210.869483 414.980447,209.711391 416.707382,208.306239 C418.434317,206.907264 420.090325,205.326082 421.675405,203.568871 C423.257401,201.817836 424.700625,200.165624 425.995827,198.618413 C427.00115,197.358409 427.254022,196.654289 426.751361,196.51223 C426.245615,196.373259 425.490081,196.447377 424.484758,196.722231 C423.476351,197.006349 422.467944,197.355321 421.462621,197.775322 C420.454215,198.198412 419.874458,198.340471 419.732602,198.198412 C419.01099,197.63944 419.874458,195.144137 422.323005,190.72177 C424.771553,186.299402 428.191501,180.722031 432.585935,173.98348 C436.977285,167.244928 442.195096,159.765198 448.245537,151.556642 C454.295978,143.341909 460.63013,135.099382 467.25416,126.813619 L475.028453,126.813619 C477.187122,126.813619 479.025075,126.149647 480.536143,124.812436 C482.047211,123.478314 483.450346,122.04228 484.748631,120.498158 C485.898894,118.954035 486.799367,117.548883 487.450052,116.285791 C488.094568,115.022698 487.265023,114.389608 484.961415,114.389608 L477.618856,114.389608 L482.802745,108.704148 C483.521274,107.861057 483.487352,106.950025 482.697896,105.964875 C481.902272,104.985901 480.75201,104.07178 479.240941,103.228689 C477.729873,102.388686 476.141709,101.650596 474.488786,101.017506 C472.832778,100.384415 471.497487,100.069414 470.492164,100.069414 C469.338818,100.069414 467.35901,101.369565 464.549656,103.963692 C461.743387,106.563994 458.465293,110.03827 454.721544,114.38652 L447.166203,114.38652 L447.166203,114.392696 L447.166203,114.392696 L447.166203,114.392696 Z" id="path-11"></path>
        <path d="M380.782742,169.259587 C377.313704,174.191031 374.206733,178.868469 371.461829,183.30429 C368.713831,187.740112 366.47644,191.754654 364.743468,195.341722 C363.007402,198.934985 362.14401,201.645421 362.14401,203.473029 C362.14401,204.461177 362.502983,205.554644 363.227118,206.750333 C363.948158,207.946022 364.922954,209.03949 366.151508,210.024539 C367.376966,211.009589 368.676695,211.855245 370.053789,212.558409 C371.424694,213.264672 372.764652,213.614705 374.064381,213.614705 C375.221759,213.614705 376.589569,213.162449 378.183284,212.24245 C379.77081,211.328646 381.435701,210.167031 383.168673,208.757604 C384.90474,207.354373 386.563441,205.768381 388.154062,204.005823 C389.741588,202.249461 391.186763,200.592223 392.489586,199.040305 C393.498424,197.776468 393.75218,197.070206 393.247761,196.927714 C392.740248,196.78832 391.982073,196.862664 390.973236,197.138354 C389.958209,197.423337 388.949372,197.77337 387.940535,198.194649 C386.925509,198.619026 386.34682,198.761518 386.204468,198.619026 C385.62578,198.058353 386.096158,196.367041 387.612508,193.548188 C389.128859,190.732433 391.189857,187.318833 393.79241,183.30429 C396.391868,179.289748 399.390528,174.996418 402.788391,170.421202 C406.183159,165.845987 409.432481,161.478314 412.542547,157.324377 C415.646424,153.173539 418.465597,149.50903 420.99388,146.343241 C423.519067,143.174354 425.292269,141.098935 426.304201,140.110788 C427.025241,139.407623 426.988106,138.561967 426.19589,137.576918 C425.40058,136.591868 424.277243,135.640892 422.838257,134.723991 C421.389988,133.810186 419.836502,133.035776 418.1778,132.40076 C416.516004,131.765744 415.176045,131.449784 414.167208,131.449784 L413.950587,131.449784 C412.21452,131.449784 408.890928,133.422981 403.979809,137.36318 C399.065596,141.306477 393.535559,146.377315 387.398981,152.569499 C381.256215,158.767878 374.933962,165.63225 368.432223,173.162614 C361.927389,180.696077 356.075514,187.981728 350.873504,195.022665 C355.209028,188.124219 359.686904,181.681127 364.31332,175.696485 C368.936641,169.71494 373.272166,164.328143 377.319893,159.53919 C381.364525,154.753336 384.97901,150.704719 388.157156,147.396439 C391.332209,144.091256 393.71814,141.659608 395.311855,140.10769 C396.178341,139.404526 396.178341,138.55887 395.311855,137.57382 C394.445369,136.58877 393.213721,135.637795 391.626195,134.720893 C390.035574,133.807089 388.373778,133.032679 386.640806,132.397662 C384.90474,131.762646 383.53074,131.446687 382.521903,131.446687 C380.785837,131.446687 377.462244,133.419884 372.551125,137.360083 C367.636912,141.303379 362.10997,146.374217 355.970298,152.566401 C349.827531,158.76478 343.505278,165.629152 337.003539,173.159517 C330.498705,180.692979 324.64683,187.97863 319.44482,195.019568 C323.780344,188.121122 328.25822,181.678029 332.884636,175.693387 C337.507958,169.711843 341.843482,164.325045 345.891209,159.536093 C349.935842,154.750238 353.550326,150.701621 356.728473,147.393341 C359.903525,144.088158 362.289456,141.65651 363.883171,140.104592 C364.749657,139.401428 364.749657,138.555772 363.883171,137.570722 C363.016685,136.585673 361.785037,135.634697 360.197511,134.717795 C358.606891,133.803991 356.948189,133.029581 355.212123,132.394565 C353.476056,131.759548 352.102057,131.443589 351.09322,131.443589 C349.935842,131.443589 347.874843,132.890187 344.916413,135.774091 C341.951793,138.661092 338.55393,142.393749 334.729013,146.968964 C330.897908,151.547277 326.958491,156.615018 322.913858,162.175283 C318.866131,167.738646 315.143336,173.159517 311.751663,178.437897 C308.3538,183.716276 305.534626,188.508327 303.297235,192.801657 C301.05675,197.098084 299.936508,200.301045 299.936508,202.413636 C299.936508,203.398686 300.478061,204.702793 301.561169,206.319761 C302.644276,207.936729 303.90687,209.420499 305.355139,210.75868 C306.79722,212.096861 308.205259,213.010665 309.582353,213.50319 C310.953258,213.995715 311.928054,213.679755 312.509838,212.552214 C312.797635,211.991541 313.085432,211.570262 313.376324,211.285279 C315.83343,207.348178 318.903266,202.909259 322.588926,197.977814 C326.274586,193.049468 330.207813,188.018899 334.400987,182.876816 C338.591065,177.740927 342.889454,172.775409 347.299249,167.986457 C351.705949,163.200602 355.861987,158.904174 359.764268,155.103369 C356.29523,159.610436 352.860232,164.256897 349.465464,169.042752 C346.067601,173.831705 343.0349,178.40692 340.364267,182.771496 C337.687444,187.139169 335.521229,191.045294 333.859433,194.496066 C332.194542,197.94374 331.365191,200.586028 331.365191,202.416734 C331.365191,203.401783 331.906745,204.70589 332.989852,206.322859 C334.07296,207.939827 335.301513,209.423597 336.675512,210.761778 C338.046417,212.099959 339.417321,213.013763 340.794415,213.506287 C342.16532,213.998812 343.214387,213.682853 343.938521,212.555312 L345.674588,209.600163 C348.274046,205.659963 351.381017,201.29229 354.995501,196.50024 C358.606891,191.714385 362.475132,186.860382 366.594034,181.928938 C370.712937,177.000591 374.903016,172.214736 379.167365,167.568275 C383.425524,162.918717 387.436116,158.767878 391.196047,155.106467 C387.720819,159.616632 384.25178,164.331241 380.782742,169.259587 L380.782742,169.259587 L380.782742,169.259587 Z" id="path-13"></path>
        <path d="M311.936438,137.593132 C311.074195,136.748864 310.027186,135.79945 308.807728,134.747982 C307.585191,133.693421 306.359574,132.747099 305.140117,131.899739 C303.917579,131.058564 302.658089,130.390573 301.364725,129.898857 C300.07136,129.40714 298.848823,129.305086 297.700193,129.583416 C293.096432,130.424591 288.38797,132.570823 283.571727,136.015929 C278.752406,139.461034 274.080897,143.574132 269.551043,148.349035 C265.021188,153.130124 260.740768,158.297783 256.715942,163.848918 C252.688036,169.403145 249.168237,174.743986 246.147308,179.874534 C243.129458,185.008174 240.755211,189.647006 239.027646,193.794121 C237.30316,197.941236 236.440917,200.999772 236.440917,202.963544 C236.440917,203.950069 236.801211,205.041741 237.518721,206.235467 C238.23623,207.429193 239.206253,208.520865 240.43187,209.504297 C241.651327,210.487729 242.944692,211.331996 244.315042,212.034006 C245.679233,212.739109 247.009551,213.088567 248.305995,213.088567 C248.87877,213.088567 249.993527,212.454594 251.647186,211.192831 C253.300844,209.924884 255.240891,208.239442 257.473484,206.13032 C259.699918,204.021198 262.218899,201.562617 265.021188,198.748393 C267.826557,195.940354 270.665799,192.986964 273.541995,189.89441 C271.959164,192.708634 270.736627,195.238344 269.874384,197.483538 C269.012141,199.734918 268.581019,201.562617 268.581019,202.963544 C268.581019,203.950069 268.938234,205.041741 269.658823,206.235467 C270.376332,207.429193 271.346355,208.520865 272.568893,209.504297 C273.78835,210.487729 275.084794,211.331996 276.452065,212.034006 C277.816256,212.739109 279.146574,213.088567 280.443018,213.088567 C281.591648,213.088567 282.95584,212.637054 284.541751,211.718566 C286.121503,210.806262 287.778241,209.646554 289.502726,208.239442 C291.230292,206.838515 292.880871,205.255127 294.463702,203.495464 C296.043454,201.741986 297.481552,200.087469 298.777996,198.538099 C299.781893,197.276337 300.034407,196.571235 299.532459,196.428977 C299.027431,196.289812 298.272968,196.364034 297.269071,196.639271 C296.262095,196.923786 295.252039,197.273245 294.248142,197.693832 C293.241165,198.117512 292.66531,198.259769 292.523656,198.117512 C291.947801,197.55776 292.308095,195.940354 293.601459,193.268387 C294.894824,190.599512 296.764043,187.401811 299.209118,183.672191 C301.651112,179.951848 304.419528,175.906787 307.514364,171.549378 C310.603041,167.195061 313.587017,163.081964 316.466292,159.213179 C319.342488,155.347486 321.96617,151.939491 324.340417,148.986102 C326.714665,146.032712 328.402197,143.997812 329.409174,142.869029 C330.126683,142.027854 330.08973,141.112458 329.301393,140.129026 C328.509977,139.145594 327.358267,138.230198 325.849342,137.389023 C324.340417,136.544756 322.757586,135.805635 321.103927,135.174754 C319.450269,134.540781 318.116872,134.22534 317.112975,134.22534 C315.961264,134.219155 314.233699,135.344845 311.936438,137.593132 L311.936438,137.593132 L311.936438,137.593132 Z M260.060212,191.994254 C261.569137,188.904793 263.761698,185.215375 266.637894,180.92291 C269.514089,176.63663 272.818327,172.102945 276.559845,167.324949 C280.298284,162.546952 284.141424,158.152433 288.101582,154.144482 C292.055581,150.139624 295.864847,146.839869 299.532459,144.235938 C303.20007,141.6351 306.32878,140.475392 308.915509,140.756815 C305.463458,144.415306 301.543332,149.017027 297.161291,154.568162 C292.77309,160.12239 288.566577,165.920929 284.541751,171.96378 C281.523901,175.198592 278.502971,178.362275 275.482042,181.451737 C272.464192,184.547384 269.72965,187.321405 267.284576,189.779985 C264.836422,192.241659 262.825548,194.174505 261.245796,195.578525 C259.659885,196.985637 258.800722,197.616518 258.659068,197.474261 C258.080133,196.917601 258.551287,195.086809 260.060212,191.994254 L260.060212,191.994254 L260.060212,191.994254 Z" id="path-15"></path>
        <path d="M220.606313,138.422574 C216.624786,141.38082 212.717622,144.865666 208.88792,148.877111 C205.052021,152.891653 201.433015,157.293401 198.037098,162.079256 C194.634984,166.868208 191.815381,171.691235 189.572093,176.548336 C187.325706,181.402339 185.699012,186.194389 184.688913,190.908998 C183.675715,195.626705 183.675715,199.960305 184.688913,203.897406 C185.122698,205.449324 186.132797,206.855653 187.725408,208.122588 C189.31492,209.389523 191.124424,210.479892 193.150819,211.396794 C195.174117,212.313696 197.274875,212.979689 199.443801,213.400968 C201.615824,213.825344 203.350964,213.964738 204.652319,213.825344 C206.529989,213.682853 208.84764,212.979689 211.599077,211.712753 C214.344316,210.442721 217.167017,208.825752 220.064081,206.855653 C222.954949,204.882456 225.814831,202.664545 228.637532,200.201921 C231.460234,197.739296 234.025762,195.171352 236.343414,192.49499 C237.787298,190.806776 238.258265,189.747383 237.753215,189.329202 C237.245067,188.904825 236.052158,189.400447 234.17139,190.809874 C231.274326,192.783071 228.42064,194.681925 225.597939,196.509533 C222.778336,198.343336 220.135346,199.929328 217.675165,201.264411 C215.214985,202.602592 213.008878,203.658888 211.056845,204.4302 C209.104813,205.20461 207.546285,205.591815 206.390558,205.591815 C202.625924,205.30993 201.182039,202.813232 202.049609,198.092427 C202.917179,193.377818 205.157369,187.63789 208.776375,180.878838 C210.799673,182.427658 213.080143,183.874256 215.614686,185.206242 C218.143033,186.54752 220.569131,186.934725 222.886782,186.367857 C226.50269,185.525299 230.335491,183.273314 234.388282,179.608805 C238.437975,175.947394 242.236693,171.898777 245.784435,167.462956 C249.329078,163.027134 252.257127,158.69973 254.574778,154.474548 C256.886233,150.252464 258.119422,147.083577 258.261951,144.970986 C258.40448,143.282772 257.53691,141.523312 255.659241,139.689509 C253.778473,137.861901 251.460821,136.275909 248.712484,134.937728 C245.964146,133.602645 243.032998,132.614497 239.92214,131.982578 C236.811282,131.347562 234.17139,131.384734 231.999366,132.087898 C228.383458,133.354833 224.584741,135.464327 220.606313,138.422574 L220.606313,138.422574 L220.606313,138.422574 Z M217.678264,168.308611 C220.284072,165.139725 223.066493,162.00801 226.034822,158.910369 C228.996954,155.815826 232.002465,152.962899 235.042058,150.354686 C238.078554,147.74957 240.826892,145.602905 243.290171,143.911593 C245.16784,142.787149 246.184137,142.362773 246.326666,142.644658 C246.469195,142.929641 246.109773,143.843445 245.242203,145.389168 C243.215808,148.768694 240.609999,152.324785 237.430975,156.054345 C234.245753,159.787002 230.989267,163.203699 227.664615,166.298243 C224.333765,169.398981 221.188824,171.966925 218.223593,174.00827 C215.255265,176.049616 212.906629,177.143083 211.171488,177.282477 C212.900432,174.469819 215.072455,171.477498 217.678264,168.308611 L217.678264,168.308611 L217.678264,168.308611 Z" id="path-17"></path>
        <path d="M145.644254,215.806073 C146.764428,215.416445 148.38168,214.543454 150.49601,213.1871 C153.4594,211.287183 156.20913,209.247793 158.739004,207.056534 C161.265782,204.877673 163.040101,203.008749 164.05267,201.455962 C165.062142,199.906274 164.195111,199.484758 161.451575,200.191416 C158.701846,200.898074 157.726435,199.097336 158.522246,194.801601 C159.314961,190.505866 161.559954,184.762722 165.244838,177.575269 C168.93282,170.390915 173.921348,162.255053 180.210425,153.167682 C186.499501,144.080311 193.909526,134.958847 202.443595,125.800191 C203.165089,124.954061 203.453067,124.039745 203.310626,123.051044 C203.165089,122.068542 202.768732,121.042648 202.118458,119.988861 C201.468184,118.931973 200.601152,117.912279 199.517363,116.923578 C198.433573,115.941075 197.312625,115.094946 196.157615,114.388288 C203.384943,114.251915 210.39861,114.354195 217.19552,114.704424 C223.989332,115.057753 230.135968,115.587746 235.632329,116.291305 C237.075318,116.433876 238.341803,115.587746 239.42869,113.756015 C240.515576,111.927383 241.345449,109.742323 241.924502,107.203934 C242.500459,104.668644 242.754375,102.167448 242.683155,99.7034439 C242.608838,97.2394399 242.066943,95.4449011 241.057471,94.3136288 C240.184246,93.4705985 237.583151,92.9437046 233.244896,92.7298476 C228.906641,92.51909 223.518658,92.51909 217.087141,92.7298476 C210.64943,92.9406052 203.672922,93.4365054 196.157615,94.2113494 C188.636115,94.9861934 181.300407,95.9377019 174.141203,97.0627754 C166.981998,98.1909483 160.439006,99.5298788 154.509128,101.079567 C148.579251,102.629255 144.098555,104.321514 141.060847,106.150146 C140.193815,106.571661 139.543542,107.699834 139.110026,109.531566 C138.67651,111.363297 138.639352,113.195028 139.001647,115.026759 C139.360846,116.858491 140.156657,118.336893 141.385984,119.465066 C142.612215,120.593239 144.457754,120.732711 146.919504,119.889681 C151.4002,118.339992 157.039003,117.140534 163.835912,116.297504 C170.629725,115.451374 177.934467,114.890387 185.743945,114.608344 C182.706237,117.004161 179.235014,120.596338 175.333371,125.384874 C171.428632,130.17651 167.378356,135.600418 163.185638,141.656599 C158.992921,147.715879 154.94574,154.094395 151.041001,160.782849 C147.136262,167.474402 143.590722,173.852918 140.41367,179.909099 C137.230425,185.96528 134.70055,191.392287 132.82095,196.180824 C130.938252,200.96626 130,204.490251 130,206.743497 C130,207.165013 130.467578,207.905763 131.408927,208.962651 C132.347179,210.019538 133.539347,211.076425 134.988529,212.130213 C136.431517,213.1871 138.02314,214.104516 139.7603,214.87936 C140.715428,215.304439 141.626402,215.613862 142.494257,215.806073 L145.644254,215.806073 L145.644254,215.806073 L145.644254,215.806073 Z" id="path-19"></path>
    </defs>
    <g id="Jumbo---Wordmark---Transbg" stroke="none" stroke-width="1" fill="none" fill-rule="evenodd">
        <mask id="mask-2" fill="white">
            <use xlink:href="#path-1"></use>
        </mask>
        <use id="path-19" fill="#FFFFFF" xlink:href="#path-1"></use>
        <mask id="mask-4" fill="white">
            <use xlink:href="#path-3"></use>
        </mask>
        <use id="path-17" fill="#FFFFFF" xlink:href="#path-3"></use>
        <mask id="mask-6" fill="white">
            <use xlink:href="#path-5"></use>
        </mask>
        <use id="path-15" fill="#FFFFFF" xlink:href="#path-5"></use>
        <mask id="mask-8" fill="white">
            <use xlink:href="#path-7"></use>
        </mask>
        <use id="path-13" fill="#FFFFFF" xlink:href="#path-7"></use>
        <mask id="mask-10" fill="white">
            <use xlink:href="#path-9"></use>
        </mask>
        <use id="path-11" fill="#FFFFFF" xlink:href="#path-9"></use>
        <mask id="mask-12" fill="white">
            <use xlink:href="#path-11"></use>
        </mask>
        <use id="path-9" fill="#FFFFFF" xlink:href="#path-11"></use>
        <mask id="mask-14" fill="white">
            <use xlink:href="#path-13"></use>
        </mask>
        <use id="path-7" fill="#FFFFFF" xlink:href="#path-13"></use>
        <mask id="mask-16" fill="white">
            <use xlink:href="#path-15"></use>
        </mask>
        <use id="path-5" fill="#FFFFFF" xlink:href="#path-15"></use>
        <mask id="mask-18" fill="white">
            <use xlink:href="#path-17"></use>
        </mask>
        <use id="path-3" fill="#FFFFFF" xlink:href="#path-17"></use>
        <mask id="mask-20" fill="white">
            <use xlink:href="#path-19"></use>
        </mask>
        <use id="path-1" fill="#FFFFFF" xlink:href="#path-19"></use>
    </g>
</svg>